<svg xmlns="http://www.w3.org/2000/svg" viewBox="0 0 230 55" fill="#0b3541"><path d="M29.9617,26.81064A5.74952,5.74952,0,0,0,32.566,21.70426c0-3.47235-2.50213-6.22979-6.74043-6.22979H15v24H26.4383c4.34042,0,7.04681-2.91064,7.04681-6.79149a6.40567,6.40567,0,0,0-3.52341-5.87234m-10.67234-7.2h5.97447c2.14468,0,3.217,1.22553,3.217,2.70638,0,1.73617-1.07234,2.80851-3.166,2.80851H19.28936Zm0,15.72766V29.2617h6.28085c2.24681,0,3.47234,1.32766,3.47234,3.06383s-1.17447,3.06383-3.47234,3.06383l-6.28085-.05106ZM110.183,14.8617c-7.35319,0-12.40851,5.617-12.40851,12.7149,0,7.0468,5.05531,12.5617,12.40851,12.5617,7.30213,0,12.35744-5.5149,12.35744-12.5617,0-7.14894-5.05531-12.7149-12.35744-12.7149m0,21.08936c-4.8,0-8.06809-3.57446-8.06809-8.42553,0-4.90213,3.37022-8.52766,8.06809-8.52766s8.06808,3.62553,8.06808,8.52766c-.05106,4.90213-3.37021,8.42553-8.06808,8.42553M37.67234,39.47447H49.92766l5.617-4.13617H41.9617V29.2617H53.24681V25.12553H41.9617V19.61064H54.62553V15.47447H37.67234ZM77.14468,19.61064h8.32341V39.47447h4.28936V19.61064h7.30213V15.47447H82.7617Zm73.73618-4.13617L146.4383,32.78511l-4.49362-17.31064h-4.59575L132.80426,32.734l-4.3915-17.25957h-4.44255l6.17873,24h5.10638l4.39149-16.74894,4.34043,16.74894h5.15743l6.17873-24ZM70.71064,26.19787s-1.17447-.51064-3.37022-1.42978c-2.09361-.91915-4.2383-2.04256-4.2383-3.37022,0-1.42978,1.78724-2.4,4.08511-2.4a8.40735,8.40735,0,0,1,5.71915,2.14468l3.37021-2.45106a8.14955,8.14955,0,0,0-2.24681-1.88936,12.02624,12.02624,0,0,0-6.6383-1.94043c-4.90212,0-8.834,2.75745-8.834,6.79149,0,2.91064,1.78724,5.05532,5.20851,6.53617L67.8,29.92553c2.14467.91915,3.57446,1.48086,3.57446,3.47234,0,1.583-1.583,2.65532-4.18723,2.65532a9.30063,9.30063,0,0,1-6.68936-2.65532l-3.31915,2.34894a2.993,2.993,0,0,0,.66383.71489h0l.05107.05107a13.18763,13.18763,0,0,0,9.0383,3.57446c5.31064,0,9.03829-3.01276,9.03829-7.30212C76.02128,29.67021,74.38723,27.72979,70.71064,26.19787Z" /></svg>